<?xml version="1.0" standalone="no"?>
<!DOCTYPE svg PUBLIC "-//W3C//DTD SVG 20010904//EN"
 "http://www.w3.org/TR/2001/REC-SVG-20010904/DTD/svg10.dtd">
<svg version="1.0" xmlns="http://www.w3.org/2000/svg"
 width="1280.000000pt" height="640.000000pt" viewBox="0 0 1280.000000 640.000000"
 preserveAspectRatio="xMidYMid meet">

<g transform="translate(0.000000,640.000000) scale(0.100000,-0.100000)"
fill="#000000" stroke="none">
<path d="M930 5156 c-30 -7 -66 -18 -80 -24 -204 -87 -396 -605 -474 -1283
-42 -355 -54 -889 -27 -1199 55 -654 204 -1122 420 -1323 68 -62 114 -81 236
-98 113 -15 127 -11 81 22 -59 42 -143 156 -201 274 -149 302 -240 751 -276
1360 -14 248 -6 762 16 970 43 409 124 760 235 1016 43 99 138 252 170 271 47
30 -1 36 -100 14z"/>
<path d="M1220 5156 c-63 -13 -132 -51 -172 -93 -45 -47 -125 -189 -167 -296
-156 -400 -236 -901 -248 -1542 -15 -844 111 -1482 358 -1816 90 -120 152
-157 304 -179 115 -16 115 -16 56 43 -238 236 -396 801 -452 1612 -15 220 -6
779 15 975 67 608 210 1044 414 1263 l45 47 -49 -1 c-27 0 -74 -6 -104 -13z"/>
<path d="M1513 5156 c-172 -56 -318 -283 -429 -668 -110 -384 -159 -802 -159
-1368 0 -367 5 -461 40 -720 80 -592 270 -1034 496 -1151 62 -32 166 -32 228
0 107 56 209 182 300 372 156 324 258 770 295 1289 2 30 2 -1 0 -70 -2 -69 -6
-150 -9 -180 -4 -50 -4 -51 4 -15 9 38 26 239 34 393 l4 72 -41 0 c-29 0 -317
-23 -372 -30 -1 0 -4 -48 -8 -107 -28 -435 -148 -703 -315 -703 -136 0 -225
193 -278 605 -27 214 -24 647 5 809 53 287 139 440 255 453 165 19 290 -227
328 -643 l12 -131 41 4 c22 2 112 10 199 17 86 7 160 16 164 19 7 8 -15 284
-28 342 -8 38 -8 38 -3 -10 2 -27 6 -113 9 -190 l4 -140 -9 120 c-72 996 -423
1743 -767 1631z m784 -2103 c-3 -10 -5 -2 -5 17 0 19 2 27 5 18 2 -10 2 -26 0
-35z"/>
<path d="M11160 5161 c-111 -36 -202 -124 -298 -286 -170 -289 -303 -810 -341
-1340 l-10 -130 4 160 c3 170 -7 137 -20 -66 l-7 -107 28 -6 c16 -3 94 -10
174 -16 80 -6 159 -13 176 -15 l31 -5 7 92 c4 51 14 138 22 194 46 320 169
517 311 501 116 -13 202 -166 255 -453 29 -162 32 -595 5 -809 -42 -327 -99
-496 -194 -574 -67 -55 -154 -38 -228 47 -89 101 -155 346 -171 636 -7 111 -8
116 -29 116 -19 0 -154 10 -336 25 l-57 4 5 -107 c6 -134 32 -404 40 -412 3
-3 3 20 -1 50 -3 30 -8 111 -10 180 -2 69 -2 100 0 70 37 -519 139 -965 295
-1289 91 -190 193 -316 300 -372 62 -32 166 -32 228 0 200 104 371 458 465
961 57 302 70 472 70 900 1 402 -5 502 -45 808 -83 639 -273 1110 -492 1217
-57 27 -137 39 -177 26z m-653 -2103 c-2 -13 -4 -5 -4 17 -1 22 1 32 4 23 2
-10 2 -28 0 -40z"/>
<path d="M11470 5124 c206 -222 349 -655 416 -1264 21 -196 30 -744 15 -970
-32 -478 -102 -880 -205 -1176 -73 -209 -138 -326 -239 -431 -67 -70 -67 -69
48 -53 152 22 214 59 304 179 172 233 278 590 338 1141 22 208 25 866 5 1085
-53 561 -143 955 -283 1240 -60 123 -110 190 -173 232 -57 39 -97 51 -196 60
l-75 6 45 -49z"/>
<path d="M11750 5164 c0 -5 9 -15 20 -22 32 -19 127 -172 170 -271 111 -256
193 -608 235 -1016 22 -209 30 -723 16 -970 -36 -609 -127 -1058 -276 -1360
-58 -118 -142 -232 -201 -274 -46 -33 -32 -37 81 -22 122 17 168 36 236 98
216 200 364 664 420 1318 16 184 16 729 0 924 -54 675 -180 1175 -360 1433
-56 80 -101 117 -172 141 -56 19 -169 33 -169 21z"/>
<path d="M409 4622 c-281 -145 -460 -1240 -339 -2074 49 -336 144 -591 268
-721 41 -43 69 -60 125 -75 35 -10 38 -9 32 6 -40 104 -112 440 -139 648 -37
294 -49 497 -49 859 0 374 12 554 53 830 27 185 75 404 116 538 7 23 -5 22
-67 -11z"/>
<path d="M12324 4633 c67 -216 120 -510 152 -843 24 -238 24 -798 1 -1066 -31
-359 -82 -666 -146 -879 -16 -55 -29 -101 -28 -102 9 -9 116 42 144 68 277
263 396 1130 272 1978 -49 337 -133 602 -240 757 -28 42 -87 84 -137 99 -20 6
-23 4 -18 -12z"/>
<path d="M1510 4034 c-88 -75 -153 -294 -185 -634 -40 -410 5 -780 119 -975
39 -66 79 -95 132 -95 38 0 51 6 90 42 97 90 199 383 221 634 l6 76 -49 -6
c-116 -13 -194 -17 -214 -11 -61 20 -69 233 -10 265 10 6 76 15 145 22 l127
11 -7 56 c-30 252 -126 513 -221 601 -55 50 -105 55 -154 14z"/>
<path d="M11136 4020 c-96 -89 -194 -357 -222 -607 l-7 -63 29 -1 c16 0 85 -6
153 -13 154 -15 161 -21 161 -133 0 -78 -9 -106 -38 -122 -11 -6 -71 -5 -161
3 l-144 12 6 -81 c18 -250 121 -551 221 -643 39 -36 52 -42 90 -42 36 0 52 6
79 29 61 54 119 189 151 348 74 373 25 986 -98 1231 -66 131 -138 157 -220 82z"/>
<path d="M10522 3755 c0 -16 2 -22 5 -12 2 9 2 23 0 30 -3 6 -5 -1 -5 -18z"/>
<path d="M5830 3519 c-878 -18 -2072 -76 -3485 -169 -606 -41 -708 -49 -720
-61 -5 -5 -11 -42 -13 -82 -6 -125 -84 -118 714 -64 379 26 831 56 1004 67
173 11 383 24 465 30 206 14 990 56 1385 75 1470 69 2697 36 4720 -126 206
-16 458 -36 560 -44 250 -20 634 -53 692 -60 72 -8 88 12 88 115 0 108 -7 115
-131 123 -52 4 -175 14 -274 22 -754 60 -1934 122 -2955 155 -834 27 -1418 32
-2050 19z"/>
</g>
</svg>
